<svg xmlns="http://www.w3.org/2000/svg" viewBox="0 0 800 800">
  <defs>
    <linearGradient id="g1" x1="0" y1="0" x2="1" y2="1">
      <stop offset="0%" stop-color="#6366f1"/>
      <stop offset="100%" stop-color="#22d3ee"/>
    </linearGradient>
  </defs>
  <rect width="800" height="800" fill="#0b0b0c"/>
  <rect x="40" y="40" width="720" height="720" rx="40" fill="url(#g1)" opacity="0.15"/>
  <g transform="translate(80,220)">
    <path d="M50 260c50-35 110-55 180-60 55-4 104 5 154 18 26 7 50 14 73 17 16 2 31-7 37-21l13-32c5-12 1-26-11-34-31-20-74-40-124-54-65-19-127-25-184-18-38 5-70 15-98 30-17 10-31 21-41 34-8 11-11 24-8 36l9 38c3 13-3 26-14 32l-29 16c-12 7-16 24-6 34 21 22 56 28 100 18z" fill="url(#g1)"/>
    <circle cx="120" cy="310" r="18" fill="#fff"/>
    <circle cx="230" cy="310" r="18" fill="#fff"/>
  </g>
  <text x="60" y="100" font-family="Inter, system-ui, sans-serif" font-weight="800" font-size="48" fill="#fff">Air Velocity</text>
</svg>
