<svg xmlns="http://www.w3.org/2000/svg" viewBox="0 0 800 800">
  <defs>
    <linearGradient id="g2" x1="0" y1="0" x2="1" y2="1">
      <stop offset="0%" stop-color="#a78bfa"/>
      <stop offset="100%" stop-color="#f472b6"/>
    </linearGradient>
  </defs>
  <rect width="800" height="800" fill="#0b0b0c"/>
  <rect x="60" y="60" width="680" height="680" rx="36" fill="url(#g2)" opacity="0.18"/>
  <g transform="translate(90,240)">
    <path d="M40 240c48-30 102-50 168-56 57-5 107 2 160 14 29 7 56 13 80 16 13 2 26-6 30-18l10-26c4-10 0-22-9-28-27-18-64-35-107-47-58-16-112-21-163-15-33 4-62 12-86 25-14 8-26 18-34 28-6 9-8 20-6 30l8 31c3 11-2 22-11 27l-24 13c-10 5-13 20-6 28 18 19 49 24 90 17z" fill="url(#g2)"/>
  </g>
  <text x="60" y="100" font-family="Inter, system-ui, sans-serif" font-weight="800" font-size="48" fill="#fff">Air Velocity</text>
</svg>
