<svg xmlns="http://www.w3.org/2000/svg" viewBox="0 0 800 800">
  <defs>
    <linearGradient id="h3" x1="0" y1="0" x2="1" y2="1">
      <stop offset="0%" stop-color="#f43f5e"/>
      <stop offset="100%" stop-color="#8b5cf6"/>
    </linearGradient>
  </defs>
  <rect width="800" height="800" fill="#0b0b0c"/>
  <rect x="80" y="80" width="640" height="640" rx="32" fill="url(#h3)" opacity="0.2"/>
  <g transform="translate(80,240)">
    <path d="M50 240c44-28 97-47 158-54 60-6 113 1 170 13 24 5 47 10 68 13 11 2 23-5 27-16l9-24c3-9 0-19-8-25-24-16-57-32-97-43-55-15-105-20-154-14-31 4-58 11-81 23-13 7-24 16-31 25-6 8-8 18-6 27l7 28c2 10-2 20-9 25l-22 12c-10 5-12 18-5 26 16 17 46 22 86 17z" fill="url(#h3)"/>
  </g>
  <text x="60" y="100" font-family="Inter, system-ui, sans-serif" font-weight="800" font-size="48" fill="#fff">Street Pulse</text>
</svg>
