<svg xmlns="http://www.w3.org/2000/svg" viewBox="0 0 800 800">
  <defs>
    <linearGradient id="h2" x1="0" y1="0" x2="1" y2="1">
      <stop offset="0%" stop-color="#10b981"/>
      <stop offset="100%" stop-color="#3b82f6"/>
    </linearGradient>
  </defs>
  <rect width="800" height="800" fill="#0b0b0c"/>
  <rect x="60" y="60" width="680" height="680" rx="36" fill="url(#h2)" opacity="0.18"/>
  <g transform="translate(90,240)">
    <path d="M40 240c46-30 101-50 165-56 58-5 110 2 163 14 30 7 58 13 83 16 13 2 25-6 29-18l10-26c3-10 0-21-9-27-27-18-63-35-106-47-57-16-111-21-162-15-33 4-62 12-86 25-14 8-25 18-33 27-6 9-8 20-6 30l8 31c3 11-2 21-11 26l-24 13c-10 6-13 20-6 28 18 19 49 24 89 17z" fill="url(#h2)"/>
  </g>
  <text x="60" y="100" font-family="Inter, system-ui, sans-serif" font-weight="800" font-size="48" fill="#fff">Street Pulse</text>
</svg>
