<svg xmlns="http://www.w3.org/2000/svg" viewBox="0 0 800 800">
  <defs>
    <linearGradient id="t1" x1="0" y1="0" x2="1" y2="1">
      <stop offset="0%" stop-color="#22c55e"/>
      <stop offset="100%" stop-color="#16a34a"/>
    </linearGradient>
  </defs>
  <rect width="800" height="800" fill="#0b0b0c"/>
  <rect x="40" y="40" width="720" height="720" rx="40" fill="url(#t1)" opacity="0.15"/>
  <g transform="translate(80,220)">
    <path d="M50 260c52-34 114-55 186-60 57-4 109 5 160 17 30 7 58 13 84 16 15 2 29-6 35-20l14-32c5-12 1-26-11-34-33-20-78-40-131-54-67-18-131-24-189-17-39 5-73 15-101 29-17 9-31 20-40 31-8 10-11 23-8 34l9 35c3 12-3 25-14 31l-28 15c-11 6-14 23-6 32 22 22 58 27 101 17z" fill="url(#t1)"/>
    <circle cx="120" cy="310" r="18" fill="#fff"/>
    <circle cx="230" cy="310" r="18" fill="#fff"/>
  </g>
  <text x="60" y="100" font-family="Inter, system-ui, sans-serif" font-weight="800" font-size="48" fill="#fff">Trail Guardian</text>
</svg>
