<svg xmlns="http://www.w3.org/2000/svg" viewBox="0 0 800 800">
  <defs>
    <linearGradient id="t3" x1="0" y1="0" x2="1" y2="1">
      <stop offset="0%" stop-color="#f59e0b"/>
      <stop offset="100%" stop-color="#84cc16"/>
    </linearGradient>
  </defs>
  <rect width="800" height="800" fill="#0b0b0c"/>
  <rect x="80" y="80" width="640" height="640" rx="32" fill="url(#t3)" opacity="0.2"/>
  <g transform="translate(80,240)">
    <path d="M50 240c45-28 99-47 162-54 61-6 116 1 174 13 25 5 48 10 70 13 12 2 24-5 28-16l9-24c3-9 0-19-8-25-25-16-58-32-99-43-56-15-108-20-158-14-31 4-59 11-83 23-13 7-24 16-32 25-6 8-8 18-6 27l7 28c2 10-2 20-10 25l-22 12c-9 5-12 18-5 26 17 17 48 22 89 17z" fill="url(#t3)"/>
  </g>
  <text x="60" y="100" font-family="Inter, system-ui, sans-serif" font-weight="800" font-size="48" fill="#fff">Trail Guardian</text>
</svg>
