<svg xmlns="http://www.w3.org/2000/svg" width="512" height="512" viewBox="0 0 512 512">
  <defs>
    <linearGradient id="g" x1="0" y1="0" x2="1" y2="1">
      <stop offset="0%" stop-color="#6366f1"/>
      <stop offset="100%" stop-color="#ec4899"/>
    </linearGradient>
    <filter id="f" x="-20%" y="-20%" width="140%" height="140%">
      <feGaussianBlur in="SourceGraphic" stdDeviation="6" result="blur"/>
    </filter>
  </defs>
  <rect width="512" height="512" rx="120" fill="#0b0b0c"/>
  <g transform="translate(56,80)">
    <path d="M40 196c32-22 70-34 114-36 34-2 64 3 94 10 17 4 33 8 49 10 10 2 20-4 24-13l8-20c3-7 0-15-7-19-19-12-45-24-76-33-40-12-79-16-115-12-24 3-45 10-63 19-11 6-20 13-26 21-5 7-7 15-5 23l6 24c2 8-2 17-9 21l-18 10c-8 4-10 15-4 21 13 14 35 18 64 14z" fill="url(#g)"/>
    <path d="M64 220c8 0 14 6 14 14s-6 14-14 14-14-6-14-14 6-14 14-14zm76 0c8 0 14 6 14 14s-6 14-14 14-14-6-14-14 6-14 14-14z" fill="#fff" opacity="0.9"/>
    <ellipse cx="286" cy="150" rx="50" ry="16" fill="url(#g)" opacity="0.4" filter="url(#f)"/>
  </g>
  <text x="256" y="468" font-family="Inter, system-ui, -apple-system, Segoe UI, Roboto, Helvetica, Arial, sans-serif" font-weight="800" font-size="64" text-anchor="middle" fill="url(#g)">Luvré</text>
</svg>
